<svg xmlns="http://www.w3.org/2000/svg" viewBox="0 0 512 512">
  <rect width="512" height="512" rx="112" fill="#14b8a6"/>
  <circle cx="256" cy="252" r="150" fill="#fff9ed"/>
  <path fill="#17212b" d="M166 170c0-18 27-18 27 0v74c0 22 11 39 28 48v72c0 20-30 20-30 0v-72c-25-13-42-39-42-72v-50c0-18 27-18 27 0v53h17v-53Zm137-10c35 0 64 37 64 84 0 37-18 69-44 80v40c0 20-30 20-30 0V324c-26-11-44-43-44-80 0-47 24-84 54-84Z"/>
  <path fill="#ef4444" d="M255 145c28-36 85-18 86 34 1 55-67 91-86 113-19-22-87-58-86-113 1-52 58-70 86-34Z"/>
</svg>
